<svg width="132" height="22" viewBox="0 0 132 22" fill="none" xmlns="http://www.w3.org/2000/svg">
<path d="M11 1L1 6L11 11L21 6L11 1ZM1 16L11 21L21 16M1 11L11 16L21 11" fill="white"/>
<path d="M1 16L11 21L21 16M1 11L11 16L21 11M11 1L1 6L11 11L21 6L11 1Z" stroke="#07C983" stroke-width="2" stroke-linecap="round" stroke-linejoin="round"/>
<path d="M32.8182 17H29.8608V8.27273H32.8778C33.7443 8.27273 34.4886 8.44744 35.1108 8.79688C35.7358 9.14347 36.2159 9.64205 36.5511 10.2926C36.8864 10.9432 37.054 11.7216 37.054 12.6278C37.054 13.5369 36.8849 14.3182 36.5469 14.9716C36.2116 15.625 35.7273 16.1264 35.0938 16.4759C34.4631 16.8253 33.7045 17 32.8182 17ZM31.4418 15.6321H32.7415C33.3494 15.6321 33.8565 15.5213 34.2628 15.2997C34.669 15.0753 34.9744 14.7415 35.179 14.2983C35.3835 13.8523 35.4858 13.2955 35.4858 12.6278C35.4858 11.9602 35.3835 11.4062 35.179 10.9659C34.9744 10.5227 34.6719 10.1918 34.2713 9.97301C33.8736 9.75142 33.3793 9.64062 32.7884 9.64062H31.4418V15.6321ZM39.7493 10.4545L41.0703 12.8707L42.4126 10.4545H44.0447L42.0717 13.7273L44.0788 17H42.4553L41.0703 14.6435L39.6982 17H38.0618L40.0561 13.7273L38.1129 10.4545H39.7493ZM48.2635 17H45.3061V8.27273H48.3232C49.1896 8.27273 49.9339 8.44744 50.5561 8.79688C51.1811 9.14347 51.6612 9.64205 51.9964 10.2926C52.3317 10.9432 52.4993 11.7216 52.4993 12.6278C52.4993 13.5369 52.3303 14.3182 51.9922 14.9716C51.657 15.625 51.1726 16.1264 50.5391 16.4759C49.9084 16.8253 49.1499 17 48.2635 17ZM46.8871 15.6321H48.1868C48.7947 15.6321 49.3018 15.5213 49.7081 15.2997C50.1143 15.0753 50.4197 14.7415 50.6243 14.2983C50.8288 13.8523 50.9311 13.2955 50.9311 12.6278C50.9311 11.9602 50.8288 11.4062 50.6243 10.9659C50.4197 10.5227 50.1172 10.1918 49.7166 9.97301C49.3189 9.75142 48.8246 9.64062 48.2337 9.64062H46.8871V15.6321ZM56.831 17.1278C56.1747 17.1278 55.608 16.9915 55.1307 16.7188C54.6563 16.4432 54.2912 16.054 54.0355 15.5511C53.7798 15.0455 53.652 14.4503 53.652 13.7656C53.652 13.0923 53.7798 12.5014 54.0355 11.9929C54.294 11.4815 54.6548 11.0838 55.1179 10.7997C55.581 10.5128 56.125 10.3693 56.75 10.3693C57.1534 10.3693 57.5341 10.4347 57.892 10.5653C58.2528 10.6932 58.571 10.892 58.8466 11.1619C59.125 11.4318 59.3438 11.7756 59.5028 12.1932C59.6619 12.608 59.7415 13.1023 59.7415 13.6761V14.1491H54.3764V13.1094H58.2628C58.2599 12.8139 58.196 12.5511 58.071 12.321C57.946 12.0881 57.7713 11.9048 57.5469 11.7713C57.3253 11.6378 57.0668 11.571 56.7713 11.571C56.456 11.571 56.179 11.6477 55.9403 11.8011C55.7017 11.9517 55.5156 12.1506 55.3821 12.3977C55.2514 12.642 55.1847 12.9105 55.1818 13.2031V14.1108C55.1818 14.4915 55.2514 14.8182 55.3906 15.0909C55.5298 15.3608 55.7244 15.5682 55.9744 15.7131C56.2244 15.8551 56.517 15.9261 56.8523 15.9261C57.0767 15.9261 57.2798 15.8949 57.4616 15.8324C57.6435 15.767 57.8011 15.6719 57.9347 15.5469C58.0682 15.4219 58.169 15.267 58.2372 15.0824L59.6776 15.2443C59.5866 15.625 59.4134 15.9574 59.1577 16.2415C58.9048 16.5227 58.581 16.7415 58.1861 16.8977C57.7912 17.0511 57.3395 17.1278 56.831 17.1278ZM66.7056 10.4545L64.3746 17H62.6701L60.3391 10.4545H61.984L63.4883 15.3168H63.5565L65.065 10.4545H66.7056ZM67.8413 17V8.27273H71.114C71.7844 8.27273 72.3469 8.3892 72.8015 8.62216C73.2589 8.85511 73.604 9.18182 73.837 9.60227C74.0728 10.0199 74.1907 10.5071 74.1907 11.0639C74.1907 11.6236 74.0714 12.1094 73.8327 12.5213C73.5969 12.9304 73.2489 13.2472 72.7887 13.4716C72.3285 13.6932 71.7631 13.804 71.0927 13.804H68.7617V12.4915H70.8796C71.2717 12.4915 71.5927 12.4375 71.8427 12.3295C72.0927 12.2187 72.2773 12.0582 72.3967 11.848C72.5188 11.6349 72.5799 11.3736 72.5799 11.0639C72.5799 10.7543 72.5188 10.4901 72.3967 10.2713C72.2745 10.0497 72.0884 9.8821 71.8384 9.76847C71.5884 9.65199 71.266 9.59375 70.8711 9.59375H69.4222V17H67.8413ZM72.3498 13.0455L74.5103 17H72.7461L70.6239 13.0455H72.3498ZM78.3817 17.1278C77.7255 17.1278 77.1587 16.9915 76.6815 16.7188C76.207 16.4432 75.842 16.054 75.5863 15.5511C75.3306 15.0455 75.2028 14.4503 75.2028 13.7656C75.2028 13.0923 75.3306 12.5014 75.5863 11.9929C75.8448 11.4815 76.2056 11.0838 76.6687 10.7997C77.1317 10.5128 77.6758 10.3693 78.3008 10.3693C78.7042 10.3693 79.0849 10.4347 79.4428 10.5653C79.8036 10.6932 80.1218 10.892 80.3974 11.1619C80.6758 11.4318 80.8945 11.7756 81.0536 12.1932C81.2127 12.608 81.2923 13.1023 81.2923 13.6761V14.1491H75.9272V13.1094H79.8136C79.8107 12.8139 79.7468 12.5511 79.6218 12.321C79.4968 12.0881 79.3221 11.9048 79.0977 11.7713C78.8761 11.6378 78.6175 11.571 78.3221 11.571C78.0067 11.571 77.7298 11.6477 77.4911 11.8011C77.2525 11.9517 77.0664 12.1506 76.9329 12.3977C76.8022 12.642 76.7354 12.9105 76.7326 13.2031V14.1108C76.7326 14.4915 76.8022 14.8182 76.9414 15.0909C77.0806 15.3608 77.2752 15.5682 77.5252 15.7131C77.7752 15.8551 78.0678 15.9261 78.4031 15.9261C78.6275 15.9261 78.8306 15.8949 79.0124 15.8324C79.1942 15.767 79.3519 15.6719 79.4854 15.5469C79.619 15.4219 79.7198 15.267 79.788 15.0824L81.2283 15.2443C81.1374 15.625 80.9641 15.9574 80.7085 16.2415C80.4556 16.5227 80.1317 16.7415 79.7369 16.8977C79.342 17.0511 78.8903 17.1278 78.3817 17.1278ZM84.1399 8.27273V17H82.5973V8.27273H84.1399ZM90.973 17V18.2315H85.3352V17H90.973ZM97.1839 11.0597C97.1129 10.8295 97.0149 10.6236 96.8899 10.4418C96.7678 10.2571 96.62 10.0994 96.4467 9.96875C96.2763 9.83807 96.0803 9.74006 95.8587 9.67472C95.6371 9.60653 95.3956 9.57244 95.1342 9.57244C94.6655 9.57244 94.2479 9.69034 93.8814 9.92614C93.5149 10.1619 93.2266 10.5085 93.0163 10.9659C92.8089 11.4205 92.7053 11.9744 92.7053 12.6278C92.7053 13.2869 92.8089 13.8452 93.0163 14.3026C93.2237 14.7599 93.5121 15.108 93.8814 15.3466C94.2507 15.5824 94.6797 15.7003 95.1683 15.7003C95.6115 15.7003 95.995 15.6151 96.3189 15.4446C96.6456 15.2741 96.897 15.0327 97.0732 14.7202C97.2493 14.4048 97.3374 14.0355 97.3374 13.6122L97.6953 13.6676H95.326V12.4318H98.8672V13.4801C98.8672 14.2273 98.7081 14.8736 98.3899 15.419C98.0717 15.9645 97.6342 16.3849 97.0774 16.6804C96.5206 16.973 95.8814 17.1193 95.1598 17.1193C94.3558 17.1193 93.6499 16.9389 93.0419 16.5781C92.4368 16.2145 91.9638 15.6989 91.6229 15.0312C91.2848 14.3608 91.1158 13.5653 91.1158 12.6449C91.1158 11.9403 91.2152 11.3111 91.4141 10.7571C91.6158 10.2031 91.897 9.73295 92.2578 9.34659C92.6186 8.95739 93.0419 8.66193 93.5277 8.46023C94.0135 8.25568 94.5419 8.15341 95.1129 8.15341C95.5959 8.15341 96.0462 8.22443 96.4638 8.36648C96.8814 8.50568 97.2521 8.70455 97.576 8.96307C97.9027 9.22159 98.1712 9.52841 98.3814 9.88352C98.5916 10.2386 98.7294 10.6307 98.7947 11.0597H97.1839ZM104.5 14.2472V10.4545H106.042V17H104.547V15.8366H104.478C104.331 16.2031 104.088 16.5028 103.75 16.7358C103.414 16.9687 103.001 17.0852 102.51 17.0852C102.081 17.0852 101.701 16.9901 101.372 16.7997C101.045 16.6065 100.789 16.3267 100.605 15.9602C100.42 15.5909 100.328 15.1449 100.328 14.6222V10.4545H101.87V14.3835C101.87 14.7983 101.984 15.1278 102.211 15.3722C102.439 15.6165 102.737 15.7386 103.106 15.7386C103.333 15.7386 103.554 15.6832 103.767 15.5724C103.98 15.4616 104.154 15.2969 104.291 15.0781C104.43 14.8565 104.5 14.5795 104.5 14.2472ZM107.629 17V10.4545H109.171V17H107.629ZM108.404 9.52557C108.16 9.52557 107.95 9.4446 107.773 9.28267C107.597 9.1179 107.509 8.92045 107.509 8.69034C107.509 8.45739 107.597 8.25994 107.773 8.09801C107.95 7.93324 108.16 7.85085 108.404 7.85085C108.651 7.85085 108.862 7.93324 109.035 8.09801C109.211 8.25994 109.299 8.45739 109.299 8.69034C109.299 8.92045 109.211 9.1179 109.035 9.28267C108.862 9.4446 108.651 9.52557 108.404 9.52557ZM113.186 17.1151C112.672 17.1151 112.212 16.983 111.806 16.7188C111.4 16.4545 111.078 16.071 110.843 15.5682C110.607 15.0653 110.489 14.4545 110.489 13.7358C110.489 13.0085 110.608 12.3949 110.847 11.8949C111.088 11.392 111.414 11.0128 111.823 10.7571C112.232 10.4986 112.688 10.3693 113.191 10.3693C113.574 10.3693 113.89 10.4347 114.137 10.5653C114.384 10.6932 114.58 10.848 114.725 11.0298C114.87 11.2088 114.982 11.3778 115.061 11.5369H115.125V8.27273H116.672V17H115.155V15.9688H115.061C114.982 16.1278 114.867 16.2969 114.716 16.4759C114.566 16.652 114.367 16.8026 114.12 16.9276C113.873 17.0526 113.561 17.1151 113.186 17.1151ZM113.617 15.8494C113.944 15.8494 114.222 15.7614 114.452 15.5852C114.682 15.4062 114.857 15.1577 114.976 14.8395C115.096 14.5213 115.155 14.1506 115.155 13.7273C115.155 13.304 115.096 12.9361 114.976 12.6236C114.86 12.3111 114.686 12.0682 114.456 11.8949C114.229 11.7216 113.949 11.6349 113.617 11.6349C113.273 11.6349 112.986 11.7244 112.756 11.9034C112.526 12.0824 112.353 12.3295 112.236 12.6449C112.12 12.9602 112.061 13.321 112.061 13.7273C112.061 14.1364 112.12 14.5014 112.236 14.8224C112.355 15.1406 112.53 15.392 112.76 15.5767C112.993 15.7585 113.279 15.8494 113.617 15.8494ZM121.214 17.1278C120.558 17.1278 119.991 16.9915 119.513 16.7188C119.039 16.4432 118.674 16.054 118.418 15.5511C118.163 15.0455 118.035 14.4503 118.035 13.7656C118.035 13.0923 118.163 12.5014 118.418 11.9929C118.677 11.4815 119.038 11.0838 119.501 10.7997C119.964 10.5128 120.508 10.3693 121.133 10.3693C121.536 10.3693 121.917 10.4347 122.275 10.5653C122.636 10.6932 122.954 10.892 123.229 11.1619C123.508 11.4318 123.727 11.7756 123.886 12.1932C124.045 12.608 124.124 13.1023 124.124 13.6761V14.1491H118.759V13.1094H122.646C122.643 12.8139 122.579 12.5511 122.454 12.321C122.329 12.0881 122.154 11.9048 121.93 11.7713C121.708 11.6378 121.45 11.571 121.154 11.571C120.839 11.571 120.562 11.6477 120.323 11.8011C120.085 11.9517 119.898 12.1506 119.765 12.3977C119.634 12.642 119.567 12.9105 119.565 13.2031V14.1108C119.565 14.4915 119.634 14.8182 119.773 15.0909C119.913 15.3608 120.107 15.5682 120.357 15.7131C120.607 15.8551 120.9 15.9261 121.235 15.9261C121.46 15.9261 121.663 15.8949 121.844 15.8324C122.026 15.767 122.184 15.6719 122.317 15.5469C122.451 15.4219 122.552 15.267 122.62 15.0824L124.06 15.2443C123.969 15.625 123.796 15.9574 123.54 16.2415C123.288 16.5227 122.964 16.7415 122.569 16.8977C122.174 17.0511 121.722 17.1278 121.214 17.1278ZM130.603 12.1847L129.196 12.3381C129.157 12.196 129.087 12.0625 128.988 11.9375C128.891 11.8125 128.76 11.7116 128.596 11.6349C128.431 11.5582 128.229 11.5199 127.99 11.5199C127.669 11.5199 127.4 11.5895 127.181 11.7287C126.965 11.8679 126.858 12.0483 126.861 12.2699C126.858 12.4602 126.928 12.6151 127.07 12.7344C127.215 12.8537 127.453 12.9517 127.786 13.0284L128.902 13.267C129.522 13.4006 129.982 13.6122 130.283 13.902C130.587 14.1918 130.74 14.571 130.743 15.0398C130.74 15.4517 130.62 15.8153 130.381 16.1307C130.145 16.4432 129.817 16.6875 129.397 16.8636C128.976 17.0398 128.493 17.1278 127.948 17.1278C127.147 17.1278 126.502 16.9602 126.013 16.625C125.525 16.2869 125.233 15.8168 125.14 15.2145L126.644 15.0696C126.712 15.3651 126.857 15.5881 127.078 15.7386C127.3 15.8892 127.588 15.9645 127.944 15.9645C128.31 15.9645 128.604 15.8892 128.826 15.7386C129.05 15.5881 129.162 15.402 129.162 15.1804C129.162 14.9929 129.09 14.8381 128.945 14.7159C128.803 14.5937 128.581 14.5 128.28 14.4347L127.164 14.2003C126.536 14.0696 126.071 13.8494 125.77 13.5398C125.469 13.2273 125.32 12.8324 125.323 12.3551C125.32 11.9517 125.429 11.6023 125.651 11.3068C125.875 11.0085 126.186 10.7784 126.584 10.6165C126.985 10.4517 127.446 10.3693 127.969 10.3693C128.736 10.3693 129.34 10.5327 129.78 10.8594C130.223 11.1861 130.498 11.6278 130.603 12.1847Z" fill="white"/>
</svg>
