<svg width="134" height="22" viewBox="0 0 134 22" fill="none" xmlns="http://www.w3.org/2000/svg">
<path d="M11 1L1 6L11 11L21 6L11 1ZM1 16L11 21L21 16M1 11L11 16L21 11" fill="white"/>
<path d="M1 16L11 21L21 16M1 11L11 16L21 11M11 1L1 6L11 11L21 6L11 1Z" stroke="#07C983" stroke-width="2" stroke-linecap="round" stroke-linejoin="round"/>
<path d="M34.8182 17H31.8608V8.27273H34.8778C35.7443 8.27273 36.4886 8.44744 37.1108 8.79688C37.7358 9.14347 38.2159 9.64205 38.5511 10.2926C38.8864 10.9432 39.054 11.7216 39.054 12.6278C39.054 13.5369 38.8849 14.3182 38.5469 14.9716C38.2116 15.625 37.7273 16.1264 37.0938 16.4759C36.4631 16.8253 35.7045 17 34.8182 17ZM33.4418 15.6321H34.7415C35.3494 15.6321 35.8565 15.5213 36.2628 15.2997C36.669 15.0753 36.9744 14.7415 37.179 14.2983C37.3835 13.8523 37.4858 13.2955 37.4858 12.6278C37.4858 11.9602 37.3835 11.4062 37.179 10.9659C36.9744 10.5227 36.6719 10.1918 36.2713 9.97301C35.8736 9.75142 35.3793 9.64062 34.7884 9.64062H33.4418V15.6321ZM41.7493 10.4545L43.0703 12.8707L44.4126 10.4545H46.0447L44.0717 13.7273L46.0788 17H44.4553L43.0703 14.6435L41.6982 17H40.0618L42.0561 13.7273L40.1129 10.4545H41.7493ZM50.2635 17H47.3061V8.27273H50.3232C51.1896 8.27273 51.9339 8.44744 52.5561 8.79688C53.1811 9.14347 53.6612 9.64205 53.9964 10.2926C54.3317 10.9432 54.4993 11.7216 54.4993 12.6278C54.4993 13.5369 54.3303 14.3182 53.9922 14.9716C53.657 15.625 53.1726 16.1264 52.5391 16.4759C51.9084 16.8253 51.1499 17 50.2635 17ZM48.8871 15.6321H50.1868C50.7947 15.6321 51.3018 15.5213 51.7081 15.2997C52.1143 15.0753 52.4197 14.7415 52.6243 14.2983C52.8288 13.8523 52.9311 13.2955 52.9311 12.6278C52.9311 11.9602 52.8288 11.4062 52.6243 10.9659C52.4197 10.5227 52.1172 10.1918 51.7166 9.97301C51.3189 9.75142 50.8246 9.64062 50.2337 9.64062H48.8871V15.6321ZM58.831 17.1278C58.1747 17.1278 57.608 16.9915 57.1307 16.7188C56.6563 16.4432 56.2912 16.054 56.0355 15.5511C55.7798 15.0455 55.652 14.4503 55.652 13.7656C55.652 13.0923 55.7798 12.5014 56.0355 11.9929C56.294 11.4815 56.6548 11.0838 57.1179 10.7997C57.581 10.5128 58.125 10.3693 58.75 10.3693C59.1534 10.3693 59.5341 10.4347 59.892 10.5653C60.2528 10.6932 60.571 10.892 60.8466 11.1619C61.125 11.4318 61.3438 11.7756 61.5028 12.1932C61.6619 12.608 61.7415 13.1023 61.7415 13.6761V14.1491H56.3764V13.1094H60.2628C60.2599 12.8139 60.196 12.5511 60.071 12.321C59.946 12.0881 59.7713 11.9048 59.5469 11.7713C59.3253 11.6378 59.0668 11.571 58.7713 11.571C58.456 11.571 58.179 11.6477 57.9403 11.8011C57.7017 11.9517 57.5156 12.1506 57.3821 12.3977C57.2514 12.642 57.1847 12.9105 57.1818 13.2031V14.1108C57.1818 14.4915 57.2514 14.8182 57.3906 15.0909C57.5298 15.3608 57.7244 15.5682 57.9744 15.7131C58.2244 15.8551 58.517 15.9261 58.8523 15.9261C59.0767 15.9261 59.2798 15.8949 59.4616 15.8324C59.6435 15.767 59.8011 15.6719 59.9347 15.5469C60.0682 15.4219 60.169 15.267 60.2372 15.0824L61.6776 15.2443C61.5866 15.625 61.4134 15.9574 61.1577 16.2415C60.9048 16.5227 60.581 16.7415 60.1861 16.8977C59.7912 17.0511 59.3395 17.1278 58.831 17.1278ZM68.7056 10.4545L66.3746 17H64.6701L62.3391 10.4545H63.984L65.4883 15.3168H65.5565L67.065 10.4545H68.7056ZM69.8413 17V8.27273H73.114C73.7844 8.27273 74.3469 8.3892 74.8015 8.62216C75.2589 8.85511 75.604 9.18182 75.837 9.60227C76.0728 10.0199 76.1907 10.5071 76.1907 11.0639C76.1907 11.6236 76.0714 12.1094 75.8327 12.5213C75.5969 12.9304 75.2489 13.2472 74.7887 13.4716C74.3285 13.6932 73.7631 13.804 73.0927 13.804H70.7617V12.4915H72.8796C73.2717 12.4915 73.5927 12.4375 73.8427 12.3295C74.0927 12.2187 74.2773 12.0582 74.3967 11.848C74.5188 11.6349 74.5799 11.3736 74.5799 11.0639C74.5799 10.7543 74.5188 10.4901 74.3967 10.2713C74.2745 10.0497 74.0884 9.8821 73.8384 9.76847C73.5884 9.65199 73.266 9.59375 72.8711 9.59375H71.4222V17H69.8413ZM74.3498 13.0455L76.5103 17H74.7461L72.6239 13.0455H74.3498ZM80.3817 17.1278C79.7255 17.1278 79.1587 16.9915 78.6815 16.7188C78.207 16.4432 77.842 16.054 77.5863 15.5511C77.3306 15.0455 77.2028 14.4503 77.2028 13.7656C77.2028 13.0923 77.3306 12.5014 77.5863 11.9929C77.8448 11.4815 78.2056 11.0838 78.6687 10.7997C79.1317 10.5128 79.6758 10.3693 80.3008 10.3693C80.7042 10.3693 81.0849 10.4347 81.4428 10.5653C81.8036 10.6932 82.1218 10.892 82.3974 11.1619C82.6758 11.4318 82.8945 11.7756 83.0536 12.1932C83.2127 12.608 83.2923 13.1023 83.2923 13.6761V14.1491H77.9272V13.1094H81.8136C81.8107 12.8139 81.7468 12.5511 81.6218 12.321C81.4968 12.0881 81.3221 11.9048 81.0977 11.7713C80.8761 11.6378 80.6175 11.571 80.3221 11.571C80.0067 11.571 79.7298 11.6477 79.4911 11.8011C79.2525 11.9517 79.0664 12.1506 78.9329 12.3977C78.8022 12.642 78.7354 12.9105 78.7326 13.2031V14.1108C78.7326 14.4915 78.8022 14.8182 78.9414 15.0909C79.0806 15.3608 79.2752 15.5682 79.5252 15.7131C79.7752 15.8551 80.0678 15.9261 80.4031 15.9261C80.6275 15.9261 80.8306 15.8949 81.0124 15.8324C81.1942 15.767 81.3519 15.6719 81.4854 15.5469C81.619 15.4219 81.7198 15.267 81.788 15.0824L83.2283 15.2443C83.1374 15.625 82.9641 15.9574 82.7085 16.2415C82.4556 16.5227 82.1317 16.7415 81.7369 16.8977C81.342 17.0511 80.8903 17.1278 80.3817 17.1278ZM86.1399 8.27273V17H84.5973V8.27273H86.1399ZM92.973 17V18.2315H87.3352V17H92.973ZM99.1839 11.0597C99.1129 10.8295 99.0149 10.6236 98.8899 10.4418C98.7678 10.2571 98.62 10.0994 98.4467 9.96875C98.2763 9.83807 98.0803 9.74006 97.8587 9.67472C97.6371 9.60653 97.3956 9.57244 97.1342 9.57244C96.6655 9.57244 96.2479 9.69034 95.8814 9.92614C95.5149 10.1619 95.2266 10.5085 95.0163 10.9659C94.8089 11.4205 94.7053 11.9744 94.7053 12.6278C94.7053 13.2869 94.8089 13.8452 95.0163 14.3026C95.2237 14.7599 95.5121 15.108 95.8814 15.3466C96.2507 15.5824 96.6797 15.7003 97.1683 15.7003C97.6115 15.7003 97.995 15.6151 98.3189 15.4446C98.6456 15.2741 98.897 15.0327 99.0732 14.7202C99.2493 14.4048 99.3374 14.0355 99.3374 13.6122L99.6953 13.6676H97.326V12.4318H100.867V13.4801C100.867 14.2273 100.708 14.8736 100.39 15.419C100.072 15.9645 99.6342 16.3849 99.0774 16.6804C98.5206 16.973 97.8814 17.1193 97.1598 17.1193C96.3558 17.1193 95.6499 16.9389 95.0419 16.5781C94.4368 16.2145 93.9638 15.6989 93.6229 15.0312C93.2848 14.3608 93.1158 13.5653 93.1158 12.6449C93.1158 11.9403 93.2152 11.3111 93.4141 10.7571C93.6158 10.2031 93.897 9.73295 94.2578 9.34659C94.6186 8.95739 95.0419 8.66193 95.5277 8.46023C96.0135 8.25568 96.5419 8.15341 97.1129 8.15341C97.5959 8.15341 98.0462 8.22443 98.4638 8.36648C98.8814 8.50568 99.2521 8.70455 99.576 8.96307C99.9027 9.22159 100.171 9.52841 100.381 9.88352C100.592 10.2386 100.729 10.6307 100.795 11.0597H99.1839ZM106.5 14.2472V10.4545H108.042V17H106.547V15.8366H106.478C106.331 16.2031 106.088 16.5028 105.75 16.7358C105.414 16.9687 105.001 17.0852 104.51 17.0852C104.081 17.0852 103.701 16.9901 103.372 16.7997C103.045 16.6065 102.789 16.3267 102.605 15.9602C102.42 15.5909 102.328 15.1449 102.328 14.6222V10.4545H103.87V14.3835C103.87 14.7983 103.984 15.1278 104.211 15.3722C104.439 15.6165 104.737 15.7386 105.106 15.7386C105.333 15.7386 105.554 15.6832 105.767 15.5724C105.98 15.4616 106.154 15.2969 106.291 15.0781C106.43 14.8565 106.5 14.5795 106.5 14.2472ZM109.629 17V10.4545H111.171V17H109.629ZM110.404 9.52557C110.16 9.52557 109.95 9.4446 109.773 9.28267C109.597 9.1179 109.509 8.92045 109.509 8.69034C109.509 8.45739 109.597 8.25994 109.773 8.09801C109.95 7.93324 110.16 7.85085 110.404 7.85085C110.651 7.85085 110.862 7.93324 111.035 8.09801C111.211 8.25994 111.299 8.45739 111.299 8.69034C111.299 8.92045 111.211 9.1179 111.035 9.28267C110.862 9.4446 110.651 9.52557 110.404 9.52557ZM115.186 17.1151C114.672 17.1151 114.212 16.983 113.806 16.7188C113.4 16.4545 113.078 16.071 112.843 15.5682C112.607 15.0653 112.489 14.4545 112.489 13.7358C112.489 13.0085 112.608 12.3949 112.847 11.8949C113.088 11.392 113.414 11.0128 113.823 10.7571C114.232 10.4986 114.688 10.3693 115.191 10.3693C115.574 10.3693 115.89 10.4347 116.137 10.5653C116.384 10.6932 116.58 10.848 116.725 11.0298C116.87 11.2088 116.982 11.3778 117.061 11.5369H117.125V8.27273H118.672V17H117.155V15.9688H117.061C116.982 16.1278 116.867 16.2969 116.716 16.4759C116.566 16.652 116.367 16.8026 116.12 16.9276C115.873 17.0526 115.561 17.1151 115.186 17.1151ZM115.617 15.8494C115.944 15.8494 116.222 15.7614 116.452 15.5852C116.682 15.4062 116.857 15.1577 116.976 14.8395C117.096 14.5213 117.155 14.1506 117.155 13.7273C117.155 13.304 117.096 12.9361 116.976 12.6236C116.86 12.3111 116.686 12.0682 116.456 11.8949C116.229 11.7216 115.949 11.6349 115.617 11.6349C115.273 11.6349 114.986 11.7244 114.756 11.9034C114.526 12.0824 114.353 12.3295 114.236 12.6449C114.12 12.9602 114.061 13.321 114.061 13.7273C114.061 14.1364 114.12 14.5014 114.236 14.8224C114.355 15.1406 114.53 15.392 114.76 15.5767C114.993 15.7585 115.279 15.8494 115.617 15.8494ZM123.214 17.1278C122.558 17.1278 121.991 16.9915 121.513 16.7188C121.039 16.4432 120.674 16.054 120.418 15.5511C120.163 15.0455 120.035 14.4503 120.035 13.7656C120.035 13.0923 120.163 12.5014 120.418 11.9929C120.677 11.4815 121.038 11.0838 121.501 10.7997C121.964 10.5128 122.508 10.3693 123.133 10.3693C123.536 10.3693 123.917 10.4347 124.275 10.5653C124.636 10.6932 124.954 10.892 125.229 11.1619C125.508 11.4318 125.727 11.7756 125.886 12.1932C126.045 12.608 126.124 13.1023 126.124 13.6761V14.1491H120.759V13.1094H124.646C124.643 12.8139 124.579 12.5511 124.454 12.321C124.329 12.0881 124.154 11.9048 123.93 11.7713C123.708 11.6378 123.45 11.571 123.154 11.571C122.839 11.571 122.562 11.6477 122.323 11.8011C122.085 11.9517 121.898 12.1506 121.765 12.3977C121.634 12.642 121.567 12.9105 121.565 13.2031V14.1108C121.565 14.4915 121.634 14.8182 121.773 15.0909C121.913 15.3608 122.107 15.5682 122.357 15.7131C122.607 15.8551 122.9 15.9261 123.235 15.9261C123.46 15.9261 123.663 15.8949 123.844 15.8324C124.026 15.767 124.184 15.6719 124.317 15.5469C124.451 15.4219 124.552 15.267 124.62 15.0824L126.06 15.2443C125.969 15.625 125.796 15.9574 125.54 16.2415C125.288 16.5227 124.964 16.7415 124.569 16.8977C124.174 17.0511 123.722 17.1278 123.214 17.1278ZM132.603 12.1847L131.196 12.3381C131.157 12.196 131.087 12.0625 130.988 11.9375C130.891 11.8125 130.76 11.7116 130.596 11.6349C130.431 11.5582 130.229 11.5199 129.99 11.5199C129.669 11.5199 129.4 11.5895 129.181 11.7287C128.965 11.8679 128.858 12.0483 128.861 12.2699C128.858 12.4602 128.928 12.6151 129.07 12.7344C129.215 12.8537 129.453 12.9517 129.786 13.0284L130.902 13.267C131.522 13.4006 131.982 13.6122 132.283 13.902C132.587 14.1918 132.74 14.571 132.743 15.0398C132.74 15.4517 132.62 15.8153 132.381 16.1307C132.145 16.4432 131.817 16.6875 131.397 16.8636C130.976 17.0398 130.493 17.1278 129.948 17.1278C129.147 17.1278 128.502 16.9602 128.013 16.625C127.525 16.2869 127.233 15.8168 127.14 15.2145L128.644 15.0696C128.712 15.3651 128.857 15.5881 129.078 15.7386C129.3 15.8892 129.588 15.9645 129.944 15.9645C130.31 15.9645 130.604 15.8892 130.826 15.7386C131.05 15.5881 131.162 15.402 131.162 15.1804C131.162 14.9929 131.09 14.8381 130.945 14.7159C130.803 14.5937 130.581 14.5 130.28 14.4347L129.164 14.2003C128.536 14.0696 128.071 13.8494 127.77 13.5398C127.469 13.2273 127.32 12.8324 127.323 12.3551C127.32 11.9517 127.429 11.6023 127.651 11.3068C127.875 11.0085 128.186 10.7784 128.584 10.6165C128.985 10.4517 129.446 10.3693 129.969 10.3693C130.736 10.3693 131.34 10.5327 131.78 10.8594C132.223 11.1861 132.498 11.6278 132.603 12.1847Z" fill="black"/>
</svg>
